<svg xmlns:xlink="http://www.w3.org/1999/xlink" xmlns="http://www.w3.org/2000/svg" xmlns:ev="http://www.w3.org/2001/xml-events" height="804" viewBox="0 0 3377 804" width="3377"><style type="text/css"><![CDATA[
.st3 {fill:#404557;font-family:Cambria;font-size:10pt}
.st1 {fill:#575d75;font-family:Cambria;font-size:10pt}
.st2 {fill:#ffffff;font-family:Cambria;font-size:10pt;font-weight:bold}
]]></style><defs/><g id="page1" transform="translate(5,5)"><rect stroke="#808080" x="0" height="794" fill="#ffffff" y="0" width="3368"/><g transform="translate(1404.36,695.57)"><g id="shape1"><path stroke="#575d75" fill="none" d="M0,26L114,26"/></g><text class="st1"><tspan x="33" y="13.5">Safety Design</tspan></text><text class="st1"><tspan x="5" y="13.5">2.6.</tspan></text></g><g transform="translate(1404.36,731.57)"><g id="shape2"><path stroke="#575d75" fill="none" d="M0,26L178,26"/></g><text class="st1"><tspan x="33" y="13.5">Modeling and Simulation</tspan></text><text class="st1"><tspan x="5" y="13.5">2.7.</tspan></text></g><g transform="translate(1503.36,443.57)"><g id="shape3"><path stroke="#575d75" fill="none" d="M0,26L142,26"/></g><text class="st1"><tspan x="43" y="13.5">Car Body Design</tspan></text><text class="st1"><tspan x="5" y="13.5">2.2.1.</tspan></text></g><g transform="translate(1503.36,479.57)"><g id="shape4"><path stroke="#575d75" fill="none" d="M0,26L202,26"/></g><text class="st1"><tspan x="43" y="13.5">Car Body Material Selection</tspan></text><text class="st1"><tspan x="5" y="13.5">2.2.2.</tspan></text></g><g transform="translate(1503.36,515.57)"><g id="shape5"><path stroke="#575d75" fill="none" d="M0,26L134,26"/></g><text class="st1"><tspan x="43" y="13.5">Chassis Design</tspan></text><text class="st1"><tspan x="5" y="13.5">2.2.3.</tspan></text></g><g transform="translate(1503.36,551.57)"><g id="shape6"><path stroke="#575d75" fill="none" d="M0,26L194,26"/></g><text class="st1"><tspan x="43" y="13.5">Chassis Material Selection</tspan></text><text class="st1"><tspan x="5" y="13.5">2.2.4.</tspan></text></g><path stroke="#575d75" id="shape7" fill="none" d="M0,0L0,324L20,324" transform="translate(1384.36,361.57)"/><path stroke="#575d75" id="shape8" fill="none" d="M0,0L0,360L20,360" transform="translate(1384.36,361.57)"/><path stroke="#575d75" id="shape9" fill="none" d="M0,0L0,396L20,396" transform="translate(1384.36,361.57)"/><path stroke="#575d75" id="shape10" fill="none" d="M0,0L0,36L20,36" transform="translate(1483.36,433.57)"/><path stroke="#575d75" id="shape11" fill="none" d="M0,0L0,72L20,72" transform="translate(1483.36,433.57)"/><path stroke="#575d75" id="shape12" fill="none" d="M0,0L0,108L20,108" transform="translate(1483.36,433.57)"/><path stroke="#575d75" id="shape13" fill="none" d="M0,0L0,144L20,144" transform="translate(1483.36,433.57)"/><path stroke="#575d75" id="shape14" fill="none" d="M0,0L0,16L-500,16L-500,40" transform="translate(1588.36,281.57)"/><path stroke="#575d75" id="shape15" fill="none" d="M0,0L0,16L-204,16L-204,40" transform="translate(1588.36,281.57)"/><path stroke="#575d75" id="shape16" fill="none" d="M0,0L0,16L207,16L207,40" transform="translate(1588.36,281.57)"/><path stroke="#575d75" id="shape17" fill="none" d="M0,0L0,16L622,16L622,40" transform="translate(1588.36,281.57)"/><path stroke="#575d75" id="shape18" fill="none" d="M0,0L0,36L20,36" transform="translate(1088.36,361.57)"/><path stroke="#575d75" id="shape19" fill="none" d="M0,0L0,72L20,72" transform="translate(1088.36,361.57)"/><path stroke="#575d75" id="shape20" fill="none" d="M0,0L0,108L20,108" transform="translate(1088.36,361.57)"/><path stroke="#575d75" id="shape21" fill="none" d="M0,0L0,36L20,36" transform="translate(1384.36,361.57)"/><path stroke="#575d75" id="shape22" fill="none" d="M0,0L0,72L20,72" transform="translate(1384.36,361.57)"/><path stroke="#575d75" id="shape23" fill="none" d="M0,0L0,252L20,252" transform="translate(1384.36,361.57)"/><path stroke="#575d75" id="shape24" fill="none" d="M0,0L0,288L20,288" transform="translate(1384.36,361.57)"/><path stroke="#575d75" id="shape25" fill="none" d="M0,0L0,36L20,36" transform="translate(1795.36,361.57)"/><path stroke="#575d75" id="shape26" fill="none" d="M0,0L0,72L20,72" transform="translate(1795.36,361.57)"/><path stroke="#575d75" id="shape27" fill="none" d="M0,0L0,108L20,108" transform="translate(1795.36,361.57)"/><path stroke="#575d75" id="shape28" fill="none" d="M0,0L0,144L20,144" transform="translate(1795.36,361.57)"/><path stroke="#575d75" id="shape29" fill="none" d="M0,0L0,36L20,36" transform="translate(2210.36,361.57)"/><path stroke="#575d75" id="shape30" fill="none" d="M0,0L0,72L20,72" transform="translate(2210.36,361.57)"/><path stroke="#575d75" id="shape31" fill="none" d="M0,0L0,108L20,108" transform="translate(2210.36,361.57)"/><path stroke="#575d75" id="shape32" fill="none" d="M0,0L0,144L20,144" transform="translate(2210.36,361.57)"/><path stroke="#575d75" id="shape33" fill="none" d="M0,0L0,180L20,180" transform="translate(2210.36,361.57)"/><path stroke="#575d75" id="shape34" fill="none" d="M0,0L0,216L20,216" transform="translate(2210.36,361.57)"/><path stroke="#575d75" id="shape35" fill="none" d="M0,0L0,144L20,144" transform="translate(1088.36,361.57)"/><path stroke="#575d75" id="shape36" fill="none" d="M0,0L0,180L20,180" transform="translate(1088.36,361.57)"/><path stroke="#575d75" id="shape37" fill="none" d="M0,0L0,180L20,180" transform="translate(1795.36,361.57)"/><path stroke="#575d75" id="shape38" fill="none" d="M0,0L0,216L20,216" transform="translate(1795.36,361.57)"/><path stroke="#575d75" id="shape39" fill="none" d="M0,0L0,252L20,252" transform="translate(1795.36,361.57)"/><path stroke="#575d75" id="shape40" fill="none" d="M0,0L0,288L20,288" transform="translate(1795.36,361.57)"/><path stroke="#575d75" id="shape41" fill="none" d="M0,0L0,252L20,252" transform="translate(2210.36,361.57)"/><path stroke="#575d75" id="shape42" fill="none" d="M0,0L0,288L20,288" transform="translate(2210.36,361.57)"/><g transform="translate(1522.36,237.57)"><path stroke="#646b86" id="shape43" fill="#646b86" d="M7.9,0L124.1,0C128.5,0,132,3.5,132,7.9L132,36.1C132,40.5,128.5,44,124.1,44L7.9,44C3.5,44,0,40.5,0,36.1L0,7.9C0,3.5,3.5,0,7.9,0z"/><text class="st2"><tspan x="15" y="21.8">Flying Car Project</tspan></text></g><g id="shape44" transform="translate(1215.9,80.79)"><text class="st3"><tspan x="281.2" y="33.7">Use Mind Map Shapes to Create WBS Automatically with Numbering</tspan></text></g><g id="shape45" transform="translate(1307.48,153.54)"><text class="st3"><tspan x="102.4" y="18.6">Arrangement Direction = Bottom, Check Numbering option, you can export the WBS into MS Word</tspan></text></g><g transform="translate(1005.36,321.57)"><path stroke="#d16349" id="shape46" fill="#d16349" d="M7.2,0L158.8,0C162.8,0,166,3.2,166,7.2L166,32.8C166,36.8,162.8,40,158.8,40L7.2,40C3.2,40,0,36.8,0,32.8L0,7.2C0,3.2,3.2,0,7.2,0z"/><text class="st2"><tspan x="38" y="19.8">Project Preparation</tspan></text><text class="st2"><tspan x="13" y="19.8">1.</tspan></text></g><g transform="translate(1308.36,321.57)"><path stroke="#d16349" id="shape47" fill="#d16349" d="M7.2,0L144.8,0C148.8,0,152,3.2,152,7.2L152,32.8C152,36.8,148.8,40,144.8,40L7.2,40C3.2,40,0,36.8,0,32.8L0,7.2C0,3.2,3.2,0,7.2,0z"/><text class="st2"><tspan x="38" y="19.8">Blue Print Design</tspan></text><text class="st2"><tspan x="13" y="19.8">2.</tspan></text></g><g transform="translate(1725.36,321.57)"><path stroke="#d16349" id="shape48" fill="#d16349" d="M7.2,0L132.8,0C136.8,0,140,3.2,140,7.2L140,32.8C140,36.8,136.8,40,132.8,40L7.2,40C3.2,40,0,36.8,0,32.8L0,7.2C0,3.2,3.2,0,7.2,0z"/><text class="st2"><tspan x="38" y="19.8"> Manufacturing</tspan></text><text class="st2"><tspan x="13" y="19.8">3.</tspan></text></g><g transform="translate(2117.36,321.57)"><path stroke="#d16349" id="shape49" fill="#d16349" d="M7.2,0L178.8,0C182.8,0,186,3.2,186,7.2L186,32.8C186,36.8,182.8,40,178.8,40L7.2,40C3.2,40,0,36.8,0,32.8L0,7.2C0,3.2,3.2,0,7.2,0z"/><text class="st2"><tspan x="38" y="19.8"> Acceptance of Delivery</tspan></text><text class="st2"><tspan x="13" y="19.8">4.</tspan></text></g><g transform="translate(1108.36,371.57)"><path stroke="#575d75" id="shape50" fill="none" d="M0,26L152,26"/><text class="st1"><tspan x="42" y="13.5">Project Evaluation</tspan></text><text class="st1"><tspan x="8" y="13.5">1.1.</tspan></text></g><g transform="translate(1108.36,407.57)"><path stroke="#233a70" id="shape51" fill="none" d="M0,26L162,26"/><text class="st1"><tspan x="42" y="13.5">Feasibility Analysis</tspan></text><text class="st1"><tspan x="8" y="13.5">1.2.</tspan></text></g><g transform="translate(1108.36,443.57)"><path stroke="#575d75" id="shape52" fill="none" d="M0,26L144,26"/><text class="st1"><tspan x="42" y="13.5">Market Research</tspan></text><text class="st1"><tspan x="8" y="13.5">1.3.</tspan></text></g><g transform="translate(1404.36,371.57)"><path stroke="#575d75" id="shape53" fill="none" d="M0,26L154,26"/><text class="st1"><tspan x="42" y="13.5">Conceptual Design</tspan></text><text class="st1"><tspan x="8" y="13.5">2.1.</tspan></text></g><g transform="translate(1404.36,407.57)"><path stroke="#575d75" id="shape54" fill="none" d="M0,26L158,26"/><text class="st1"><tspan x="42" y="13.5">Appearance Design</tspan></text><text class="st1"><tspan x="8" y="13.5">2.2.</tspan></text></g><g transform="translate(1404.36,587.57)"><path stroke="#575d75" id="shape55" fill="none" d="M0,26L136,26"/><text class="st1"><tspan x="42" y="13.5">Interior Design</tspan></text><text class="st1"><tspan x="8" y="13.5">2.3.</tspan></text></g><g transform="translate(1404.36,623.57)"><path stroke="#575d75" id="shape56" fill="none" d="M0,26L178,26"/><text class="st1"><tspan x="42" y="13.5">Control System Design</tspan></text><text class="st1"><tspan x="8" y="13.5">2.4.</tspan></text></g><g transform="translate(1815.36,371.57)"><path stroke="#575d75" id="shape57" fill="none" d="M0,26L134,26"/><text class="st1"><tspan x="42" y="13.5">Material Order</tspan></text><text class="st1"><tspan x="8" y="13.5">3.1.</tspan></text></g><g transform="translate(1815.36,407.57)"><path stroke="#575d75" id="shape58" fill="none" d="M0,26L176,26"/><text class="st1"><tspan x="42" y="13.5">Drawings Preparation </tspan></text><text class="st1"><tspan x="8" y="13.5">3.2.</tspan></text></g><g transform="translate(1815.36,443.57)"><path stroke="#575d75" id="shape59" fill="none" d="M0,26L282,26"/><text class="st1"><tspan x="44" y="13.5">Production Bidding, Select Manufacturers</tspan></text><text class="st1"><tspan x="9" y="13.5">3.3.</tspan></text></g><g transform="translate(1815.36,479.57)"><path stroke="#575d75" id="shape60" fill="none" d="M0,26L244,26"/><text class="st1"><tspan x="44" y="13.5">Supervision of Production Process</tspan></text><text class="st1"><tspan x="9" y="13.5">3.4.</tspan></text></g><g transform="translate(2230.36,371.57)"><path stroke="#575d75" id="shape61" fill="none" d="M0,26L114,26"/><text class="st1"><tspan x="42" y="13.5">Trial Flight</tspan></text><text class="st1"><tspan x="8" y="13.5">4.1.</tspan></text></g><g transform="translate(2230.36,407.57)"><path stroke="#575d75" id="shape62" fill="none" d="M0,26L276,26"/><text class="st1"><tspan x="42" y="13.5">Test Flight Data Processing and Analysis</tspan></text><text class="st1"><tspan x="8" y="13.5">4.2.</tspan></text></g><g transform="translate(2230.36,443.57)"><path stroke="#575d75" id="shape63" fill="none" d="M0,26L210,26"/><text class="st1"><tspan x="42" y="13.5">Correction and Optimization</tspan></text><text class="st1"><tspan x="8" y="13.5">4.3.</tspan></text></g><g transform="translate(2230.36,479.57)"><path stroke="#575d75" id="shape64" fill="none" d="M0,26L212,26"/><text class="st1"><tspan x="42" y="13.5">Obtain Airworthiness Permit</tspan></text><text class="st1"><tspan x="8" y="13.5">4.4.</tspan></text></g><g transform="translate(2230.36,515.57)"><path stroke="#575d75" id="shape65" fill="none" d="M0,26L154,26"/><text class="st1"><tspan x="42" y="13.5">CustomerDelivery</tspan></text><text class="st1"><tspan x="8" y="13.5">4.5.</tspan></text></g><g transform="translate(2230.36,551.57)"><path stroke="#575d75" id="shape66" fill="none" d="M0,26L230,26"/><text class="st1"><tspan x="42" y="13.5">Maintenance Personnel Training</tspan></text><text class="st1"><tspan x="8" y="13.5">4.6.</tspan></text></g><g transform="translate(1108.36,479.57)"><path stroke="#575d75" id="shape67" fill="none" d="M0,26L180,26"/><text class="st1"><tspan x="42" y="13.5">Requirements Analysis</tspan></text><text class="st1"><tspan x="8" y="13.5">1.4.</tspan></text></g><g transform="translate(1108.36,515.57)"><path stroke="#575d75" id="shape68" fill="none" d="M0,26L140,26"/><text class="st1"><tspan x="42" y="13.5">Cost Estimation</tspan></text><text class="st1"><tspan x="8" y="13.5">1.5.</tspan></text></g><g transform="translate(1815.36,515.57)"><path stroke="#575d75" id="shape69" fill="none" d="M0,26L166,26"/><text class="st1"><tspan x="44" y="13.5">Quality Control(QC)</tspan></text><text class="st1"><tspan x="9" y="13.5">3.5.</tspan></text></g><g transform="translate(1815.36,551.57)"><path stroke="#575d75" id="shape70" fill="none" d="M0,26L146,26"/><text class="st1"><tspan x="44" y="13.5">Parts Production</tspan></text><text class="st1"><tspan x="9" y="13.5">3.6.</tspan></text></g><g transform="translate(1815.36,587.57)"><path stroke="#575d75" id="shape71" fill="none" d="M0,26L140,26"/><text class="st1"><tspan x="44" y="13.5"> Transportation</tspan></text><text class="st1"><tspan x="9" y="13.5">3.7.</tspan></text></g><g transform="translate(1815.36,623.57)"><path stroke="#575d75" id="shape72" fill="none" d="M0,26L140,26"/><text class="st1"><tspan x="44" y="13.5">Final Assembly</tspan></text><text class="st1"><tspan x="9" y="13.5">3.8.</tspan></text></g><g transform="translate(2230.36,587.57)"><path stroke="#575d75" id="shape73" fill="none" d="M0,26L250,26"/><text class="st1"><tspan x="42" y="13.5">Establish After-Sales Service Station</tspan></text><text class="st1"><tspan x="8" y="13.5">4.7.</tspan></text></g><g transform="translate(2230.36,623.57)"><path stroke="#575d75" id="shape74" fill="none" d="M0,26L152,26"/><text class="st1"><tspan x="42" y="13.5">Market Expansion</tspan></text><text class="st1"><tspan x="8" y="13.5">4.8.</tspan></text></g><g transform="translate(1404.36,659.57)"><g id="shape75"><path stroke="#575d75" fill="none" d="M0,26L158,26"/></g><text class="st1"><tspan x="33" y="13.5">Power system design</tspan></text><text class="st1"><tspan x="5" y="13.5">2.5.</tspan></text></g></g></svg>